<mxfile host="Electron" modified="2025-07-16T07:34:52.727Z" agent="Mozilla/5.0 (Macintosh; Intel Mac OS X 10_15_7) AppleWebKit/537.36 (KHTML, like Gecko) draw.io/24.6.4 Chrome/124.0.6367.207 Electron/30.0.6 Safari/537.36" etag="k_xPQkzsV4p48kqMr91c" version="24.6.4" type="device">
  <diagram name="Page-1" id="96adkFTw3gQokWJeMQEP">
    <mxGraphModel dx="2060" dy="1253" grid="1" gridSize="10" guides="1" tooltips="1" connect="1" arrows="1" fold="1" page="1" pageScale="1" pageWidth="1200" pageHeight="1600" math="0" shadow="0">
      <root>
        <mxCell id="0" />
        <mxCell id="1" parent="0" />
        <mxCell id="ADn0ii6izbT2lpTf1iRF-1" value="C++ Vs Java" style="text;html=1;align=center;verticalAlign=middle;resizable=0;points=[];autosize=1;strokeColor=#6c8ebf;fillColor=#dae8fc;fontFamily=Architects Daughter;fontSource=https%3A%2F%2Ffonts.googleapis.com%2Fcss%3Ffamily%3DArchitects%2BDaughter;" vertex="1" parent="1">
          <mxGeometry x="60" y="40" width="90" height="30" as="geometry" />
        </mxCell>
        <mxCell id="ADn0ii6izbT2lpTf1iRF-64" value="Conditions" style="text;html=1;align=center;verticalAlign=middle;resizable=0;points=[];autosize=1;strokeColor=#d6b656;fillColor=#fff2cc;fontFamily=Architects Daughter;fontSource=https%3A%2F%2Ffonts.googleapis.com%2Fcss%3Ffamily%3DArchitects%2BDaughter;" vertex="1" parent="1">
          <mxGeometry x="60" y="90" width="80" height="30" as="geometry" />
        </mxCell>
        <mxCell id="ADn0ii6izbT2lpTf1iRF-65" value="C++" style="text;html=1;align=center;verticalAlign=middle;resizable=0;points=[];autosize=1;strokeColor=none;fillColor=none;fontFamily=Architects Daughter;fontSource=https%3A%2F%2Ffonts.googleapis.com%2Fcss%3Ffamily%3DArchitects%2BDaughter;" vertex="1" parent="1">
          <mxGeometry x="75" y="138" width="40" height="30" as="geometry" />
        </mxCell>
        <mxCell id="ADn0ii6izbT2lpTf1iRF-66" value="and , or, not" style="text;html=1;align=center;verticalAlign=middle;resizable=0;points=[];autosize=1;strokeColor=none;fillColor=none;fontFamily=Architects Daughter;fontSource=https%3A%2F%2Ffonts.googleapis.com%2Fcss%3Ffamily%3DArchitects%2BDaughter;" vertex="1" parent="1">
          <mxGeometry x="75" y="178" width="90" height="30" as="geometry" />
        </mxCell>
        <mxCell id="ADn0ii6izbT2lpTf1iRF-67" value="Java" style="text;html=1;align=center;verticalAlign=middle;resizable=0;points=[];autosize=1;strokeColor=none;fillColor=none;fontFamily=Architects Daughter;fontSource=https%3A%2F%2Ffonts.googleapis.com%2Fcss%3Ffamily%3DArchitects%2BDaughter;" vertex="1" parent="1">
          <mxGeometry x="440" y="138" width="50" height="30" as="geometry" />
        </mxCell>
        <mxCell id="ADn0ii6izbT2lpTf1iRF-69" value="Both" style="text;html=1;align=center;verticalAlign=middle;resizable=0;points=[];autosize=1;strokeColor=none;fillColor=none;fontFamily=Architects Daughter;fontSource=https%3A%2F%2Ffonts.googleapis.com%2Fcss%3Ffamily%3DArchitects%2BDaughter;" vertex="1" parent="1">
          <mxGeometry x="730" y="130" width="50" height="30" as="geometry" />
        </mxCell>
        <mxCell id="ADn0ii6izbT2lpTf1iRF-72" value="&amp;amp;&amp;amp; , || , !" style="text;html=1;align=center;verticalAlign=middle;resizable=0;points=[];autosize=1;strokeColor=none;fillColor=none;fontFamily=Architects Daughter;fontSource=https%3A%2F%2Ffonts.googleapis.com%2Fcss%3Ffamily%3DArchitects%2BDaughter;" vertex="1" parent="1">
          <mxGeometry x="720" y="178" width="70" height="30" as="geometry" />
        </mxCell>
        <mxCell id="ADn0ii6izbT2lpTf1iRF-73" value="Integer reference" style="text;html=1;align=center;verticalAlign=middle;resizable=0;points=[];autosize=1;strokeColor=#d6b656;fillColor=#fff2cc;fontFamily=Architects Daughter;fontSource=https%3A%2F%2Ffonts.googleapis.com%2Fcss%3Ffamily%3DArchitects%2BDaughter;" vertex="1" parent="1">
          <mxGeometry x="75" y="360" width="130" height="30" as="geometry" />
        </mxCell>
        <mxCell id="ADn0ii6izbT2lpTf1iRF-74" value="int &amp;amp;" style="text;html=1;align=center;verticalAlign=middle;resizable=0;points=[];autosize=1;strokeColor=none;fillColor=none;fontFamily=Architects Daughter;fontSource=https%3A%2F%2Ffonts.googleapis.com%2Fcss%3Ffamily%3DArchitects%2BDaughter;" vertex="1" parent="1">
          <mxGeometry x="90" y="410" width="50" height="30" as="geometry" />
        </mxCell>
        <mxCell id="ADn0ii6izbT2lpTf1iRF-76" value="Pass a wrapper class.&lt;div&gt;&lt;br&gt;&lt;/div&gt;&lt;div&gt;class ResultWrapper{&lt;/div&gt;&lt;div&gt;int&amp;nbsp;&lt;/div&gt;&lt;div&gt;}&lt;/div&gt;" style="text;html=1;align=center;verticalAlign=middle;resizable=0;points=[];autosize=1;strokeColor=none;fillColor=none;fontFamily=Architects Daughter;fontSource=https%3A%2F%2Ffonts.googleapis.com%2Fcss%3Ffamily%3DArchitects%2BDaughter;" vertex="1" parent="1">
          <mxGeometry x="430" y="410" width="150" height="90" as="geometry" />
        </mxCell>
        <mxCell id="ADn0ii6izbT2lpTf1iRF-77" value="Loops" style="text;html=1;align=center;verticalAlign=middle;resizable=0;points=[];autosize=1;strokeColor=#d6b656;fillColor=#fff2cc;fontFamily=Architects Daughter;fontSource=https%3A%2F%2Ffonts.googleapis.com%2Fcss%3Ffamily%3DArchitects%2BDaughter;" vertex="1" parent="1">
          <mxGeometry x="90" y="560" width="60" height="30" as="geometry" />
        </mxCell>
        <mxCell id="ADn0ii6izbT2lpTf1iRF-78" value="auto" style="text;html=1;align=center;verticalAlign=middle;resizable=0;points=[];autosize=1;strokeColor=none;fillColor=none;fontFamily=Architects Daughter;fontSource=https%3A%2F%2Ffonts.googleapis.com%2Fcss%3Ffamily%3DArchitects%2BDaughter;" vertex="1" parent="1">
          <mxGeometry x="75" y="608" width="50" height="30" as="geometry" />
        </mxCell>
        <mxCell id="ADn0ii6izbT2lpTf1iRF-79" value="type is required" style="text;html=1;align=center;verticalAlign=middle;resizable=0;points=[];autosize=1;strokeColor=none;fillColor=none;fontFamily=Architects Daughter;fontSource=https%3A%2F%2Ffonts.googleapis.com%2Fcss%3Ffamily%3DArchitects%2BDaughter;" vertex="1" parent="1">
          <mxGeometry x="430" y="608" width="110" height="30" as="geometry" />
        </mxCell>
        <mxCell id="ADn0ii6izbT2lpTf1iRF-80" value="condiiton does need to evaluate to boolean" style="text;html=1;align=center;verticalAlign=middle;resizable=0;points=[];autosize=1;strokeColor=none;fillColor=none;fontFamily=Architects Daughter;fontSource=https%3A%2F%2Ffonts.googleapis.com%2Fcss%3Ffamily%3DArchitects%2BDaughter;" vertex="1" parent="1">
          <mxGeometry x="40" y="218" width="260" height="30" as="geometry" />
        </mxCell>
        <mxCell id="ADn0ii6izbT2lpTf1iRF-81" value="0 -&amp;gt; false&lt;div&gt;null -&amp;gt; false&amp;nbsp;&lt;/div&gt;&lt;div&gt;empty string -&amp;gt; false&lt;/div&gt;" style="text;html=1;align=center;verticalAlign=middle;resizable=0;points=[];autosize=1;strokeColor=none;fillColor=none;fontFamily=Architects Daughter;fontSource=https%3A%2F%2Ffonts.googleapis.com%2Fcss%3Ffamily%3DArchitects%2BDaughter;" vertex="1" parent="1">
          <mxGeometry x="55" y="248" width="140" height="60" as="geometry" />
        </mxCell>
        <mxCell id="ADn0ii6izbT2lpTf1iRF-82" value="Data Strucutures" style="text;html=1;align=center;verticalAlign=middle;resizable=0;points=[];autosize=1;strokeColor=#6c8ebf;fillColor=#dae8fc;fontFamily=Architects Daughter;fontSource=https%3A%2F%2Ffonts.googleapis.com%2Fcss%3Ffamily%3DArchitects%2BDaughter;" vertex="1" parent="1">
          <mxGeometry x="80" y="690" width="120" height="30" as="geometry" />
        </mxCell>
        <mxCell id="ADn0ii6izbT2lpTf1iRF-83" value="array :&amp;nbsp;" style="text;html=1;align=center;verticalAlign=middle;resizable=0;points=[];autosize=1;strokeColor=none;fillColor=none;fontFamily=Architects Daughter;fontSource=https%3A%2F%2Ffonts.googleapis.com%2Fcss%3Ffamily%3DArchitects%2BDaughter;" vertex="1" parent="1">
          <mxGeometry x="80" y="788" width="70" height="30" as="geometry" />
        </mxCell>
        <mxCell id="ADn0ii6izbT2lpTf1iRF-84" value="vector" style="text;html=1;align=center;verticalAlign=middle;resizable=0;points=[];autosize=1;strokeColor=none;fillColor=none;fontFamily=Architects Daughter;fontSource=https%3A%2F%2Ffonts.googleapis.com%2Fcss%3Ffamily%3DArchitects%2BDaughter;" vertex="1" parent="1">
          <mxGeometry x="80" y="828" width="60" height="30" as="geometry" />
        </mxCell>
        <mxCell id="ADn0ii6izbT2lpTf1iRF-85" value="set" style="text;html=1;align=center;verticalAlign=middle;resizable=0;points=[];autosize=1;strokeColor=none;fillColor=none;fontFamily=Architects Daughter;fontSource=https%3A%2F%2Ffonts.googleapis.com%2Fcss%3Ffamily%3DArchitects%2BDaughter;" vertex="1" parent="1">
          <mxGeometry x="80" y="858" width="40" height="30" as="geometry" />
        </mxCell>
        <mxCell id="ADn0ii6izbT2lpTf1iRF-86" value="Iniit :&amp;nbsp;" style="text;html=1;align=center;verticalAlign=middle;resizable=0;points=[];autosize=1;strokeColor=none;fillColor=none;fontFamily=Architects Daughter;fontSource=https%3A%2F%2Ffonts.googleapis.com%2Fcss%3Ffamily%3DArchitects%2BDaughter;" vertex="1" parent="1">
          <mxGeometry x="35" y="758" width="50" height="30" as="geometry" />
        </mxCell>
        <mxCell id="ADn0ii6izbT2lpTf1iRF-88" value="queue" style="text;html=1;align=center;verticalAlign=middle;resizable=0;points=[];autosize=1;strokeColor=none;fillColor=none;fontFamily=Architects Daughter;fontSource=https%3A%2F%2Ffonts.googleapis.com%2Fcss%3Ffamily%3DArchitects%2BDaughter;" vertex="1" parent="1">
          <mxGeometry x="80" y="888" width="50" height="30" as="geometry" />
        </mxCell>
        <mxCell id="ADn0ii6izbT2lpTf1iRF-91" value="stack" style="text;html=1;align=center;verticalAlign=middle;resizable=0;points=[];autosize=1;strokeColor=none;fillColor=none;fontFamily=Architects Daughter;fontSource=https%3A%2F%2Ffonts.googleapis.com%2Fcss%3Ffamily%3DArchitects%2BDaughter;" vertex="1" parent="1">
          <mxGeometry x="75" y="930" width="60" height="30" as="geometry" />
        </mxCell>
        <mxCell id="ADn0ii6izbT2lpTf1iRF-92" value="priority_queue" style="text;html=1;align=center;verticalAlign=middle;resizable=0;points=[];autosize=1;strokeColor=none;fillColor=none;fontFamily=Architects Daughter;fontSource=https%3A%2F%2Ffonts.googleapis.com%2Fcss%3Ffamily%3DArchitects%2BDaughter;" vertex="1" parent="1">
          <mxGeometry x="50" y="968" width="100" height="30" as="geometry" />
        </mxCell>
        <mxCell id="ADn0ii6izbT2lpTf1iRF-93" value="Methods :" style="text;html=1;align=center;verticalAlign=middle;resizable=0;points=[];autosize=1;strokeColor=none;fillColor=none;fontFamily=Architects Daughter;fontSource=https%3A%2F%2Ffonts.googleapis.com%2Fcss%3Ffamily%3DArchitects%2BDaughter;" vertex="1" parent="1">
          <mxGeometry x="30" y="1058" width="80" height="30" as="geometry" />
        </mxCell>
        <mxCell id="ADn0ii6izbT2lpTf1iRF-94" value="Iterate" style="text;html=1;align=center;verticalAlign=middle;resizable=0;points=[];autosize=1;strokeColor=none;fillColor=none;fontFamily=Architects Daughter;fontSource=https%3A%2F%2Ffonts.googleapis.com%2Fcss%3Ffamily%3DArchitects%2BDaughter;" vertex="1" parent="1">
          <mxGeometry x="40" y="1360" width="60" height="30" as="geometry" />
        </mxCell>
        <mxCell id="ADn0ii6izbT2lpTf1iRF-95" value="Sorting" style="text;html=1;align=center;verticalAlign=middle;resizable=0;points=[];autosize=1;strokeColor=none;fillColor=none;fontFamily=Architects Daughter;fontSource=https%3A%2F%2Ffonts.googleapis.com%2Fcss%3Ffamily%3DArchitects%2BDaughter;" vertex="1" parent="1">
          <mxGeometry x="50" y="1610" width="60" height="30" as="geometry" />
        </mxCell>
      </root>
    </mxGraphModel>
  </diagram>
</mxfile>
